<?xml version="1.0" encoding="UTF-8"?>
<!DOCTYPE svg PUBLIC "-//W3C//DTD SVG 1.1//EN" "http://www.w3.org/Graphics/SVG/1.1/DTD/svg11.dtd">
<svg xmlns="http://www.w3.org/2000/svg" version="1.1" width="1536px" height="1536px" style="shape-rendering:geometricPrecision; text-rendering:geometricPrecision; image-rendering:optimizeQuality; fill-rule:evenodd; clip-rule:evenodd" xmlns:xlink="http://www.w3.org/1999/xlink">
<g><path style="opacity:1" fill="#3b9bfe" d="M -0.5,-0.5 C 511.5,-0.5 1023.5,-0.5 1535.5,-0.5C 1535.5,511.5 1535.5,1023.5 1535.5,1535.5C 1023.5,1535.5 511.5,1535.5 -0.5,1535.5C -0.5,1023.5 -0.5,511.5 -0.5,-0.5 Z"/></g>
<g><path style="opacity:1" fill="#181818" d="M 1113.5,302.5 C 1110.33,316.185 1107,329.852 1103.5,343.5C 1090.82,382.529 1076.15,420.862 1059.5,458.5C 1044.08,492.013 1027.08,524.68 1008.5,556.5C 998.317,573.531 987.484,590.197 976,606.5C 972.069,603.123 967.902,600.123 963.5,597.5C 949.229,586.025 934.563,575.025 919.5,564.5C 904.73,552.732 889.396,541.732 873.5,531.5C 856.047,518.6 838.381,505.934 820.5,493.5C 805.643,483.242 790.643,473.242 775.5,463.5C 761.38,453.055 746.714,443.388 731.5,434.5C 728.407,430.417 725.573,430.75 723,435.5C 709.356,452.645 695.523,469.645 681.5,486.5C 697.341,497.921 713.675,508.587 730.5,518.5C 744.621,528.734 758.955,538.734 773.5,548.5C 788.992,559.746 804.658,570.746 820.5,581.5C 837.476,594.135 854.476,606.802 871.5,619.5C 887.309,631.581 902.976,643.915 918.5,656.5C 922.625,659.453 926.625,662.619 930.5,666C 926.451,670.624 922.785,675.457 919.5,680.5C 904.529,697.141 889.529,713.808 874.5,730.5C 856.788,749.178 838.454,767.178 819.5,784.5C 804.685,797.404 789.685,810.071 774.5,822.5C 759.488,834.663 744.154,846.33 728.5,857.5C 713.144,867.866 697.81,878.2 682.5,888.5C 665.159,898.503 647.825,908.503 630.5,918.5C 613.397,926.885 596.397,935.552 579.5,944.5C 597.491,960.831 615.491,977.165 633.5,993.5C 635.446,997.317 638.446,999.15 642.5,999C 656.689,991.408 670.689,983.575 684.5,975.5C 700.004,966.918 715.004,957.585 729.5,947.5C 745.22,937.314 760.553,926.647 775.5,915.5C 791.597,904.454 806.931,892.454 821.5,879.5C 828.625,874.214 835.625,868.714 842.5,863C 853.286,853.949 863.62,844.449 873.5,834.5C 889.47,820.198 904.803,805.198 919.5,789.5C 934.578,775.091 948.578,759.758 961.5,743.5C 970.394,734.054 979.06,724.387 987.5,714.5C 993.916,720.26 1000.58,725.594 1007.5,730.5C 1024.79,746.157 1042.13,761.824 1059.5,777.5C 1074.44,791.107 1089.11,805.107 1103.5,819.5C 1119.19,834.527 1134.53,849.86 1149.5,865.5C 1165.14,882.813 1180.81,900.147 1196.5,917.5C 1215.14,897.193 1233.81,876.859 1252.5,856.5C 1219.78,821.448 1185.78,787.782 1150.5,755.5C 1136.82,742.492 1122.82,729.825 1108.5,717.5C 1093.11,703.113 1077.11,689.447 1060.5,676.5C 1051.67,668.832 1043,660.999 1034.5,653C 1043.37,639.627 1052.04,626.127 1060.5,612.5C 1077.77,584.304 1093.77,555.304 1108.5,525.5C 1124.2,494.427 1138.54,462.761 1151.5,430.5C 1159.9,409.455 1168.4,388.455 1177,367.5C 1221.03,411.196 1265.36,454.529 1310,497.5C 1321.78,510.046 1330.78,524.379 1337,540.5C 1341.21,556.97 1342.21,573.637 1340,590.5C 1339.83,610.167 1339.67,629.833 1339.5,649.5C 1340.53,765.165 1340.7,880.832 1340,996.5C 1337.62,1003.6 1334.95,1010.6 1332,1017.5C 1225.75,1123.42 1119.25,1228.92 1012.5,1334C 1006.13,1338.35 999.131,1341.35 991.5,1343C 841.167,1343.67 690.833,1343.67 540.5,1343C 529.492,1340 519.825,1334.66 511.5,1327C 408.639,1224.47 306.139,1121.64 204,1018.5C 199.587,1011.67 196.254,1004.34 194,996.5C 193.117,975.84 192.451,955.174 192,934.5C 191.667,826.833 191.333,719.167 191,611.5C 190.449,597.835 189.949,584.169 189.5,570.5C 188.395,552.247 192.895,535.581 203,520.5C 306.861,416.973 410.361,313.139 513.5,209C 522.455,202.19 532.455,197.524 543.5,195C 692.832,193.086 842.165,193.086 991.5,195C 1000.44,197.304 1008.77,200.971 1016.5,206C 1048.78,238.443 1081.11,270.61 1113.5,302.5 Z"/></g>
<g><path style="opacity:1" fill="#419efe" d="M 1151.5,430.5 C 1138.54,462.761 1124.2,494.427 1108.5,525.5C 1104.89,524.818 1104.22,523.318 1106.5,521C 1103.83,519.667 1103.83,518.333 1106.5,517C 1103.83,515.667 1103.83,514.333 1106.5,513C 1103.83,511.667 1103.83,510.333 1106.5,509C 1103.83,507.667 1103.83,506.333 1106.5,505C 1103.83,503.667 1103.83,502.333 1106.5,501C 1103.83,499.667 1103.83,498.333 1106.5,497C 1103.83,495.667 1103.83,494.333 1106.5,493C 1103.83,491.667 1103.83,490.333 1106.5,489C 1103.83,487.667 1103.83,486.333 1106.5,485C 1103.83,483.667 1103.83,482.333 1106.5,481C 1103.83,479.667 1103.83,478.333 1106.5,477C 1103.83,475.667 1103.83,474.333 1106.5,473C 1103.83,471.667 1103.83,470.333 1106.5,469C 1103.83,467.667 1103.83,466.333 1106.5,465C 1103.83,463.667 1103.83,462.333 1106.5,461C 1103.83,459.667 1103.83,458.333 1106.5,457C 1103.83,455.667 1103.83,454.333 1106.5,453C 1103.83,451.667 1103.83,450.333 1106.5,449C 1103.83,447.667 1103.83,446.333 1106.5,445C 1103.83,443.667 1103.83,442.333 1106.5,441C 1103.83,439.667 1103.83,438.333 1106.5,437C 1103.83,435.667 1103.83,434.333 1106.5,433C 1103.83,431.667 1103.83,430.333 1106.5,429C 1103.83,427.667 1103.83,426.333 1106.5,425C 1103.83,423.667 1103.83,422.333 1106.5,421C 1103.83,419.667 1103.83,418.333 1106.5,417C 1103.83,415.667 1103.83,414.333 1106.5,413C 1103.83,411.667 1103.83,410.333 1106.5,409C 1103.83,407.667 1103.83,406.333 1106.5,405C 1103.83,403.667 1103.83,402.333 1106.5,401C 1103.83,399.667 1103.83,398.333 1106.5,397C 1103.83,395.667 1103.83,394.333 1106.5,393C 1103.83,391.667 1103.83,390.333 1106.5,389C 1103.83,387.667 1103.83,386.333 1106.5,385C 1103.83,383.667 1103.83,382.333 1106.5,381C 1103.83,379.667 1103.83,378.333 1106.5,377C 1103.83,375.667 1103.83,374.333 1106.5,373C 1103.83,371.667 1103.83,370.333 1106.5,369C 1103.83,367.667 1103.83,366.333 1106.5,365C 1103.83,363.667 1103.83,362.333 1106.5,361C 1103.83,359.667 1103.83,358.333 1106.5,357C 1103.83,355.667 1103.83,354.333 1106.5,353C 1103.83,351.667 1103.83,350.333 1106.5,349C 1103.83,347.667 1103.83,346.333 1106.5,345C 1105.5,343.844 1104.5,343.344 1103.5,343.5C 1107,329.852 1110.33,316.185 1113.5,302.5C 1113.5,301.5 1113.5,300.5 1113.5,299.5C 1124.3,302.488 1134.96,305.988 1145.5,310C 1147.16,311.624 1148.82,313.291 1150.5,315C 1147.83,316.333 1147.83,317.667 1150.5,319C 1147.83,320.333 1147.83,321.667 1150.5,323C 1147.83,324.333 1147.83,325.667 1150.5,327C 1147.83,328.333 1147.83,329.667 1150.5,331C 1147.83,332.333 1147.83,333.667 1150.5,335C 1147.83,336.333 1147.83,337.667 1150.5,339C 1147.83,340.333 1147.83,341.667 1150.5,343C 1147.83,344.333 1147.83,345.667 1150.5,347C 1147.83,348.333 1147.83,349.667 1150.5,351C 1147.83,352.333 1147.83,353.667 1150.5,355C 1147.83,356.333 1147.83,357.667 1150.5,359C 1147.83,360.333 1147.83,361.667 1150.5,363C 1147.83,364.333 1147.83,365.667 1150.5,367C 1147.83,368.333 1147.83,369.667 1150.5,371C 1147.83,372.333 1147.83,373.667 1150.5,375C 1147.83,376.333 1147.83,377.667 1150.5,379C 1147.83,380.333 1147.83,381.667 1150.5,383C 1147.83,384.333 1147.83,385.667 1150.5,387C 1147.83,388.333 1147.83,389.667 1150.5,391C 1147.83,392.333 1147.83,393.667 1150.5,395C 1147.83,396.333 1147.83,397.667 1150.5,399C 1147.83,400.333 1147.83,401.667 1150.5,403C 1147.83,404.333 1147.83,405.667 1150.5,407C 1147.83,408.333 1147.83,409.667 1150.5,411C 1147.83,412.333 1147.83,413.667 1150.5,415C 1147.83,416.333 1147.83,417.667 1150.5,419C 1147.83,420.333 1147.83,421.667 1150.5,423C 1147.83,424.333 1147.83,425.667 1150.5,427C 1147.84,428.866 1148.17,430.033 1151.5,430.5 Z"/></g>
<g><path style="opacity:1" fill="#47a0fd" d="M 1103.5,343.5 C 1104.5,343.344 1105.5,343.844 1106.5,345C 1103.83,346.333 1103.83,347.667 1106.5,349C 1103.83,350.333 1103.83,351.667 1106.5,353C 1103.83,354.333 1103.83,355.667 1106.5,357C 1103.83,358.333 1103.83,359.667 1106.5,361C 1103.83,362.333 1103.83,363.667 1106.5,365C 1103.83,366.333 1103.83,367.667 1106.5,369C 1103.83,370.333 1103.83,371.667 1106.5,373C 1103.83,374.333 1103.83,375.667 1106.5,377C 1103.83,378.333 1103.83,379.667 1106.5,381C 1103.83,382.333 1103.83,383.667 1106.5,385C 1103.83,386.333 1103.83,387.667 1106.5,389C 1103.83,390.333 1103.83,391.667 1106.5,393C 1103.83,394.333 1103.83,395.667 1106.5,397C 1103.83,398.333 1103.83,399.667 1106.5,401C 1103.83,402.333 1103.83,403.667 1106.5,405C 1103.83,406.333 1103.83,407.667 1106.5,409C 1103.83,410.333 1103.83,411.667 1106.5,413C 1103.83,414.333 1103.83,415.667 1106.5,417C 1103.83,418.333 1103.83,419.667 1106.5,421C 1103.83,422.333 1103.83,423.667 1106.5,425C 1103.83,426.333 1103.83,427.667 1106.5,429C 1103.83,430.333 1103.83,431.667 1106.5,433C 1103.83,434.333 1103.83,435.667 1106.5,437C 1103.83,438.333 1103.83,439.667 1106.5,441C 1103.83,442.333 1103.83,443.667 1106.5,445C 1103.83,446.333 1103.83,447.667 1106.5,449C 1103.83,450.333 1103.83,451.667 1106.5,453C 1103.83,454.333 1103.83,455.667 1106.5,457C 1103.83,458.333 1103.83,459.667 1106.5,461C 1103.83,462.333 1103.83,463.667 1106.5,465C 1103.83,466.333 1103.83,467.667 1106.5,469C 1103.83,470.333 1103.83,471.667 1106.5,473C 1103.83,474.333 1103.83,475.667 1106.5,477C 1103.83,478.333 1103.83,479.667 1106.5,481C 1103.83,482.333 1103.83,483.667 1106.5,485C 1103.83,486.333 1103.83,487.667 1106.5,489C 1103.83,490.333 1103.83,491.667 1106.5,493C 1103.83,494.333 1103.83,495.667 1106.5,497C 1103.83,498.333 1103.83,499.667 1106.5,501C 1103.83,502.333 1103.83,503.667 1106.5,505C 1103.83,506.333 1103.83,507.667 1106.5,509C 1103.83,510.333 1103.83,511.667 1106.5,513C 1103.83,514.333 1103.83,515.667 1106.5,517C 1103.83,518.333 1103.83,519.667 1106.5,521C 1104.22,523.318 1104.89,524.818 1108.5,525.5C 1093.77,555.304 1077.77,584.304 1060.5,612.5C 1057.93,611.516 1057.93,610.349 1060.5,609C 1060.5,607.667 1060.5,606.333 1060.5,605C 1057.83,603.667 1057.83,602.333 1060.5,601C 1060.5,599.667 1060.5,598.333 1060.5,597C 1057.83,595.667 1057.83,594.333 1060.5,593C 1060.5,591.667 1060.5,590.333 1060.5,589C 1057.83,587.667 1057.83,586.333 1060.5,585C 1060.5,583.667 1060.5,582.333 1060.5,581C 1057.83,579.667 1057.83,578.333 1060.5,577C 1060.5,575.667 1060.5,574.333 1060.5,573C 1057.83,571.667 1057.83,570.333 1060.5,569C 1060.5,567.667 1060.5,566.333 1060.5,565C 1057.83,563.667 1057.83,562.333 1060.5,561C 1060.5,559.667 1060.5,558.333 1060.5,557C 1057.83,555.667 1057.83,554.333 1060.5,553C 1060.5,551.667 1060.5,550.333 1060.5,549C 1057.83,547.667 1057.83,546.333 1060.5,545C 1060.5,543.667 1060.5,542.333 1060.5,541C 1057.83,539.667 1057.83,538.333 1060.5,537C 1060.5,535.667 1060.5,534.333 1060.5,533C 1057.83,531.667 1057.83,530.333 1060.5,529C 1060.5,527.667 1060.5,526.333 1060.5,525C 1057.83,523.667 1057.83,522.333 1060.5,521C 1060.5,519.667 1060.5,518.333 1060.5,517C 1057.83,515.667 1057.83,514.333 1060.5,513C 1060.5,511.667 1060.5,510.333 1060.5,509C 1057.83,507.667 1057.83,506.333 1060.5,505C 1060.5,503.667 1060.5,502.333 1060.5,501C 1057.83,499.667 1057.83,498.333 1060.5,497C 1060.5,495.667 1060.5,494.333 1060.5,493C 1057.83,491.667 1057.83,490.333 1060.5,489C 1060.5,487.667 1060.5,486.333 1060.5,485C 1057.83,483.667 1057.83,482.333 1060.5,481C 1060.5,479.667 1060.5,478.333 1060.5,477C 1057.83,475.667 1057.83,474.333 1060.5,473C 1060.5,471.667 1060.5,470.333 1060.5,469C 1057.83,467.667 1057.83,466.333 1060.5,465C 1059.48,463.058 1059.15,460.891 1059.5,458.5C 1076.15,420.862 1090.82,382.529 1103.5,343.5 Z"/></g>
<g><path style="opacity:1" fill="#77b9fc" d="M 731.5,434.5 C 731.167,462.5 730.833,490.5 730.5,518.5C 713.675,508.587 697.341,497.921 681.5,486.5C 695.523,469.645 709.356,452.645 723,435.5C 725.573,430.75 728.407,430.417 731.5,434.5 Z"/></g>
<g><path style="opacity:1" fill="#73b7fd" d="M 731.5,434.5 C 746.714,443.388 761.38,453.055 775.5,463.5C 774.761,463.369 774.094,463.536 773.5,464C 774.479,465.779 774.146,467.445 772.5,469C 773.167,469.667 773.833,470.333 774.5,471C 774.5,472.333 774.5,473.667 774.5,475C 771.833,476.333 771.833,477.667 774.5,479C 774.5,480.333 774.5,481.667 774.5,483C 771.833,484.333 771.833,485.667 774.5,487C 774.5,488.333 774.5,489.667 774.5,491C 771.833,492.333 771.833,493.667 774.5,495C 774.5,496.333 774.5,497.667 774.5,499C 771.833,500.333 771.833,501.667 774.5,503C 774.5,504.333 774.5,505.667 774.5,507C 771.833,508.333 771.833,509.667 774.5,511C 774.5,512.333 774.5,513.667 774.5,515C 771.833,516.333 771.833,517.667 774.5,519C 774.5,520.333 774.5,521.667 774.5,523C 771.833,524.333 771.833,525.667 774.5,527C 774.5,528.333 774.5,529.667 774.5,531C 771.833,532.333 771.833,533.667 774.5,535C 774.5,536.333 774.5,537.667 774.5,539C 771.833,540.333 771.833,541.667 774.5,543C 773.926,544.762 773.593,546.595 773.5,548.5C 758.955,538.734 744.621,528.734 730.5,518.5C 730.833,490.5 731.167,462.5 731.5,434.5 Z"/></g>
<g><path style="opacity:1" fill="#4da4fe" d="M 1059.5,458.5 C 1059.15,460.891 1059.48,463.058 1060.5,465C 1057.83,466.333 1057.83,467.667 1060.5,469C 1060.5,470.333 1060.5,471.667 1060.5,473C 1057.83,474.333 1057.83,475.667 1060.5,477C 1060.5,478.333 1060.5,479.667 1060.5,481C 1057.83,482.333 1057.83,483.667 1060.5,485C 1060.5,486.333 1060.5,487.667 1060.5,489C 1057.83,490.333 1057.83,491.667 1060.5,493C 1060.5,494.333 1060.5,495.667 1060.5,497C 1057.83,498.333 1057.83,499.667 1060.5,501C 1060.5,502.333 1060.5,503.667 1060.5,505C 1057.83,506.333 1057.83,507.667 1060.5,509C 1060.5,510.333 1060.5,511.667 1060.5,513C 1057.83,514.333 1057.83,515.667 1060.5,517C 1060.5,518.333 1060.5,519.667 1060.5,521C 1057.83,522.333 1057.83,523.667 1060.5,525C 1060.5,526.333 1060.5,527.667 1060.5,529C 1057.83,530.333 1057.83,531.667 1060.5,533C 1060.5,534.333 1060.5,535.667 1060.5,537C 1057.83,538.333 1057.83,539.667 1060.5,541C 1060.5,542.333 1060.5,543.667 1060.5,545C 1057.83,546.333 1057.83,547.667 1060.5,549C 1060.5,550.333 1060.5,551.667 1060.5,553C 1057.83,554.333 1057.83,555.667 1060.5,557C 1060.5,558.333 1060.5,559.667 1060.5,561C 1057.83,562.333 1057.83,563.667 1060.5,565C 1060.5,566.333 1060.5,567.667 1060.5,569C 1057.83,570.333 1057.83,571.667 1060.5,573C 1060.5,574.333 1060.5,575.667 1060.5,577C 1057.83,578.333 1057.83,579.667 1060.5,581C 1060.5,582.333 1060.5,583.667 1060.5,585C 1057.83,586.333 1057.83,587.667 1060.5,589C 1060.5,590.333 1060.5,591.667 1060.5,593C 1057.83,594.333 1057.83,595.667 1060.5,597C 1060.5,598.333 1060.5,599.667 1060.5,601C 1057.83,602.333 1057.83,603.667 1060.5,605C 1060.5,606.333 1060.5,607.667 1060.5,609C 1057.93,610.349 1057.93,611.516 1060.5,612.5C 1052.04,626.127 1043.37,639.627 1034.5,653C 1043,660.999 1051.67,668.832 1060.5,676.5C 1060.26,678.049 1060.26,679.549 1060.5,681C 1057.83,682.333 1057.83,683.667 1060.5,685C 1060.5,686.333 1060.5,687.667 1060.5,689C 1057.83,690.333 1057.83,691.667 1060.5,693C 1060.5,694.333 1060.5,695.667 1060.5,697C 1057.83,698.333 1057.83,699.667 1060.5,701C 1060.5,702.333 1060.5,703.667 1060.5,705C 1057.83,706.333 1057.83,707.667 1060.5,709C 1060.5,710.333 1060.5,711.667 1060.5,713C 1057.83,714.333 1057.83,715.667 1060.5,717C 1060.5,718.333 1060.5,719.667 1060.5,721C 1057.83,722.333 1057.83,723.667 1060.5,725C 1060.5,726.333 1060.5,727.667 1060.5,729C 1057.83,730.333 1057.83,731.667 1060.5,733C 1060.5,734.333 1060.5,735.667 1060.5,737C 1057.83,738.333 1057.83,739.667 1060.5,741C 1060.5,742.333 1060.5,743.667 1060.5,745C 1057.83,746.333 1057.83,747.667 1060.5,749C 1060.5,750.333 1060.5,751.667 1060.5,753C 1057.83,754.333 1057.83,755.667 1060.5,757C 1060.5,758.333 1060.5,759.667 1060.5,761C 1057.83,762.333 1057.83,763.667 1060.5,765C 1060.5,766.333 1060.5,767.667 1060.5,769C 1057.83,770.333 1057.83,771.667 1060.5,773C 1060.79,774.388 1060.45,775.888 1059.5,777.5C 1042.13,761.824 1024.79,746.157 1007.5,730.5C 1007.83,672.5 1008.17,614.5 1008.5,556.5C 1027.08,524.68 1044.08,492.013 1059.5,458.5 Z"/></g>
<g><path style="opacity:1" fill="#6db4fd" d="M 775.5,463.5 C 790.643,473.242 805.643,483.242 820.5,493.5C 820.954,522.727 820.954,552.06 820.5,581.5C 804.658,570.746 788.992,559.746 773.5,548.5C 773.593,546.595 773.926,544.762 774.5,543C 771.833,541.667 771.833,540.333 774.5,539C 774.5,537.667 774.5,536.333 774.5,535C 771.833,533.667 771.833,532.333 774.5,531C 774.5,529.667 774.5,528.333 774.5,527C 771.833,525.667 771.833,524.333 774.5,523C 774.5,521.667 774.5,520.333 774.5,519C 771.833,517.667 771.833,516.333 774.5,515C 774.5,513.667 774.5,512.333 774.5,511C 771.833,509.667 771.833,508.333 774.5,507C 774.5,505.667 774.5,504.333 774.5,503C 771.833,501.667 771.833,500.333 774.5,499C 774.5,497.667 774.5,496.333 774.5,495C 771.833,493.667 771.833,492.333 774.5,491C 774.5,489.667 774.5,488.333 774.5,487C 771.833,485.667 771.833,484.333 774.5,483C 774.5,481.667 774.5,480.333 774.5,479C 771.833,477.667 771.833,476.333 774.5,475C 774.5,473.667 774.5,472.333 774.5,471C 773.833,470.333 773.167,469.667 772.5,469C 774.146,467.445 774.479,465.779 773.5,464C 774.094,463.536 774.761,463.369 775.5,463.5 Z"/></g>
<g><path style="opacity:1" fill="#66b0fd" d="M 820.5,493.5 C 838.381,505.934 856.047,518.6 873.5,531.5C 872.761,531.369 872.094,531.536 871.5,532C 872.168,560.999 872.168,590.166 871.5,619.5C 854.476,606.802 837.476,594.135 820.5,581.5C 820.954,552.06 820.954,522.727 820.5,493.5 Z"/></g>
<g><path style="opacity:1" fill="#83bcf7" d="M 277.5,510.5 C 281.07,511.246 284.404,512.579 287.5,514.5C 282.829,527.508 276.829,539.841 269.5,551.5C 277.959,559.458 286.292,567.625 294.5,576C 292.273,578.935 289.606,580.935 286.5,582C 279.649,573.648 271.982,566.148 263.5,559.5C 253.105,572.351 240.772,582.851 226.5,591C 224.956,592.187 223.289,592.52 221.5,592C 219.5,590 217.5,588 215.5,586C 231.429,578.034 245.096,567.2 256.5,553.5C 247.445,546.445 238.112,539.779 228.5,533.5C 227.479,532.998 227.312,532.332 228,531.5C 229.529,530.271 230.696,528.771 231.5,527C 232.5,526.333 233.5,526.333 234.5,527C 243.93,533.131 253.097,539.631 262,546.5C 269.402,535.46 274.569,523.46 277.5,510.5 Z"/></g>
<g><path style="opacity:1" fill="#5fadfd" d="M 873.5,531.5 C 889.396,541.732 904.73,552.732 919.5,564.5C 919.734,594.884 919.401,625.551 918.5,656.5C 902.976,643.915 887.309,631.581 871.5,619.5C 872.168,590.166 872.168,560.999 871.5,532C 872.094,531.536 872.761,531.369 873.5,531.5 Z"/></g>
<g><path style="opacity:1" fill="#53a7fe" d="M 1008.5,556.5 C 1008.17,614.5 1007.83,672.5 1007.5,730.5C 1000.58,725.594 993.916,720.26 987.5,714.5C 979.06,724.387 970.394,734.054 961.5,743.5C 961.586,742.504 961.252,741.671 960.5,741C 963.167,739.667 963.167,738.333 960.5,737C 963.167,735.667 963.167,734.333 960.5,733C 963.167,731.667 963.167,730.333 960.5,729C 963.167,727.667 963.167,726.333 960.5,725C 963.167,723.667 963.167,722.333 960.5,721C 963.167,719.667 963.167,718.333 960.5,717C 963.167,715.667 963.167,714.333 960.5,713C 963.167,711.667 963.167,710.333 960.5,709C 963.167,707.667 963.167,706.333 960.5,705C 963.167,703.667 963.167,702.333 960.5,701C 963.167,699.667 963.167,698.333 960.5,697C 963.167,695.667 963.167,694.333 960.5,693C 963.167,691.667 963.167,690.333 960.5,689C 963.167,687.667 963.167,686.333 960.5,685C 963.167,683.667 963.167,682.333 960.5,681C 963.167,679.667 963.167,678.333 960.5,677C 963.167,675.667 963.167,674.333 960.5,673C 963.167,671.667 963.167,670.333 960.5,669C 963.167,667.667 963.167,666.333 960.5,665C 963.167,663.667 963.167,662.333 960.5,661C 963.167,659.667 963.167,658.333 960.5,657C 963.167,655.667 963.167,654.333 960.5,653C 963.167,651.667 963.167,650.333 960.5,649C 963.167,647.667 963.167,646.333 960.5,645C 963.167,643.667 963.167,642.333 960.5,641C 963.167,639.667 963.167,638.333 960.5,637C 963.167,635.667 963.167,634.333 960.5,633C 963.167,631.667 963.167,630.333 960.5,629C 963.167,627.667 963.167,626.333 960.5,625C 963.167,623.667 963.167,622.333 960.5,621C 963.167,619.667 963.167,618.333 960.5,617C 963.167,615.667 963.167,614.333 960.5,613C 963.167,611.667 963.167,610.333 960.5,609C 963.167,607.667 963.167,606.333 960.5,605C 963.167,603.667 963.167,602.333 960.5,601C 961.636,599.855 962.636,598.688 963.5,597.5C 967.902,600.123 972.069,603.123 976,606.5C 987.484,590.197 998.317,573.531 1008.5,556.5 Z"/></g>
<g><path style="opacity:1" fill="#5aaafe" d="M 919.5,564.5 C 934.563,575.025 949.229,586.025 963.5,597.5C 962.636,598.688 961.636,599.855 960.5,601C 963.167,602.333 963.167,603.667 960.5,605C 963.167,606.333 963.167,607.667 960.5,609C 963.167,610.333 963.167,611.667 960.5,613C 963.167,614.333 963.167,615.667 960.5,617C 963.167,618.333 963.167,619.667 960.5,621C 963.167,622.333 963.167,623.667 960.5,625C 963.167,626.333 963.167,627.667 960.5,629C 963.167,630.333 963.167,631.667 960.5,633C 963.167,634.333 963.167,635.667 960.5,637C 963.167,638.333 963.167,639.667 960.5,641C 963.167,642.333 963.167,643.667 960.5,645C 963.167,646.333 963.167,647.667 960.5,649C 963.167,650.333 963.167,651.667 960.5,653C 963.167,654.333 963.167,655.667 960.5,657C 963.167,658.333 963.167,659.667 960.5,661C 963.167,662.333 963.167,663.667 960.5,665C 963.167,666.333 963.167,667.667 960.5,669C 963.167,670.333 963.167,671.667 960.5,673C 963.167,674.333 963.167,675.667 960.5,677C 963.167,678.333 963.167,679.667 960.5,681C 963.167,682.333 963.167,683.667 960.5,685C 963.167,686.333 963.167,687.667 960.5,689C 963.167,690.333 963.167,691.667 960.5,693C 963.167,694.333 963.167,695.667 960.5,697C 963.167,698.333 963.167,699.667 960.5,701C 963.167,702.333 963.167,703.667 960.5,705C 963.167,706.333 963.167,707.667 960.5,709C 963.167,710.333 963.167,711.667 960.5,713C 963.167,714.333 963.167,715.667 960.5,717C 963.167,718.333 963.167,719.667 960.5,721C 963.167,722.333 963.167,723.667 960.5,725C 963.167,726.333 963.167,727.667 960.5,729C 963.167,730.333 963.167,731.667 960.5,733C 963.167,734.333 963.167,735.667 960.5,737C 963.167,738.333 963.167,739.667 960.5,741C 961.252,741.671 961.586,742.504 961.5,743.5C 948.578,759.758 934.578,775.091 919.5,789.5C 918.167,753.167 918.167,716.833 919.5,680.5C 922.785,675.457 926.451,670.624 930.5,666C 926.625,662.619 922.625,659.453 918.5,656.5C 919.401,625.551 919.734,594.884 919.5,564.5 Z"/></g>
<g><path style="opacity:1" fill="#86c1fe" d="M 228.5,649.5 C 245.167,649.5 261.833,649.5 278.5,649.5C 281.167,649.5 283.833,649.5 286.5,649.5C 286.5,652.167 286.5,654.833 286.5,657.5C 285.5,657.5 284.5,657.5 283.5,657.5C 264.674,656.503 245.674,656.17 226.5,656.5C 225.99,653.612 226.656,651.279 228.5,649.5 Z"/></g>
<g><path style="opacity:1" fill="#517091" d="M 278.5,649.5 C 281.287,648.523 284.287,648.19 287.5,648.5C 287.81,651.713 287.477,654.713 286.5,657.5C 286.5,654.833 286.5,652.167 286.5,649.5C 283.833,649.5 281.167,649.5 278.5,649.5 Z"/></g>
<g><path style="opacity:1" fill="#597ca1" d="M 228.5,649.5 C 226.656,651.279 225.99,653.612 226.5,656.5C 245.674,656.17 264.674,656.503 283.5,657.5C 264.167,657.5 244.833,657.5 225.5,657.5C 225.5,654.5 225.5,651.5 225.5,648.5C 226.791,648.263 227.791,648.596 228.5,649.5 Z"/></g>
<g><path style="opacity:1" fill="#83bdf8" d="M 291.5,675.5 C 293.833,675.5 296.167,675.5 298.5,675.5C 298.5,678.167 298.5,680.833 298.5,683.5C 286.5,683.5 274.5,683.5 262.5,683.5C 263.465,704.923 254.631,720.59 236,730.5C 233.073,729.283 230.573,727.45 228.5,725C 245.646,716.55 253.98,702.717 253.5,683.5C 240.167,683.5 226.833,683.5 213.5,683.5C 213.5,680.833 213.5,678.167 213.5,675.5C 239.5,675.5 265.5,675.5 291.5,675.5 Z"/></g>
<g><path style="opacity:1" fill="#354454" d="M 291.5,675.5 C 293.948,674.527 296.615,674.194 299.5,674.5C 299.81,677.713 299.477,680.713 298.5,683.5C 298.5,680.833 298.5,678.167 298.5,675.5C 296.167,675.5 293.833,675.5 291.5,675.5 Z"/></g>
<g><path style="opacity:1" fill="#47a1fe" d="M 1060.5,676.5 C 1077.11,689.447 1093.11,703.113 1108.5,717.5C 1104.67,717.44 1104.01,718.607 1106.5,721C 1103.83,722.333 1103.83,723.667 1106.5,725C 1103.83,726.333 1103.83,727.667 1106.5,729C 1103.83,730.333 1103.83,731.667 1106.5,733C 1103.83,734.333 1103.83,735.667 1106.5,737C 1103.83,738.333 1103.83,739.667 1106.5,741C 1103.83,742.333 1103.83,743.667 1106.5,745C 1103.83,746.333 1103.83,747.667 1106.5,749C 1103.83,750.333 1103.83,751.667 1106.5,753C 1103.83,754.333 1103.83,755.667 1106.5,757C 1103.83,758.333 1103.83,759.667 1106.5,761C 1103.83,762.333 1103.83,763.667 1106.5,765C 1103.83,766.333 1103.83,767.667 1106.5,769C 1103.83,770.333 1103.83,771.667 1106.5,773C 1103.83,774.333 1103.83,775.667 1106.5,777C 1103.83,778.333 1103.83,779.667 1106.5,781C 1103.83,782.333 1103.83,783.667 1106.5,785C 1103.83,786.333 1103.83,787.667 1106.5,789C 1103.83,790.333 1103.83,791.667 1106.5,793C 1103.83,794.333 1103.83,795.667 1106.5,797C 1103.83,798.333 1103.83,799.667 1106.5,801C 1103.83,802.333 1103.83,803.667 1106.5,805C 1103.83,806.333 1103.83,807.667 1106.5,809C 1103.83,810.333 1103.83,811.667 1106.5,813C 1106.05,815.095 1105.05,817.261 1103.5,819.5C 1089.11,805.107 1074.44,791.107 1059.5,777.5C 1060.45,775.888 1060.79,774.388 1060.5,773C 1057.83,771.667 1057.83,770.333 1060.5,769C 1060.5,767.667 1060.5,766.333 1060.5,765C 1057.83,763.667 1057.83,762.333 1060.5,761C 1060.5,759.667 1060.5,758.333 1060.5,757C 1057.83,755.667 1057.83,754.333 1060.5,753C 1060.5,751.667 1060.5,750.333 1060.5,749C 1057.83,747.667 1057.83,746.333 1060.5,745C 1060.5,743.667 1060.5,742.333 1060.5,741C 1057.83,739.667 1057.83,738.333 1060.5,737C 1060.5,735.667 1060.5,734.333 1060.5,733C 1057.83,731.667 1057.83,730.333 1060.5,729C 1060.5,727.667 1060.5,726.333 1060.5,725C 1057.83,723.667 1057.83,722.333 1060.5,721C 1060.5,719.667 1060.5,718.333 1060.5,717C 1057.83,715.667 1057.83,714.333 1060.5,713C 1060.5,711.667 1060.5,710.333 1060.5,709C 1057.83,707.667 1057.83,706.333 1060.5,705C 1060.5,703.667 1060.5,702.333 1060.5,701C 1057.83,699.667 1057.83,698.333 1060.5,697C 1060.5,695.667 1060.5,694.333 1060.5,693C 1057.83,691.667 1057.83,690.333 1060.5,689C 1060.5,687.667 1060.5,686.333 1060.5,685C 1057.83,683.667 1057.83,682.333 1060.5,681C 1060.26,679.549 1060.26,678.049 1060.5,676.5 Z"/></g>
<g><path style="opacity:1" fill="#60aefd" d="M 919.5,680.5 C 918.167,716.833 918.167,753.167 919.5,789.5C 904.803,805.198 889.47,820.198 873.5,834.5C 872.761,834.631 872.094,834.464 871.5,834C 872.833,801.333 872.833,768.667 871.5,736C 872.758,734.259 873.758,732.426 874.5,730.5C 889.529,713.808 904.529,697.141 919.5,680.5 Z"/></g>
<g><path style="opacity:1" fill="#419efe" d="M 1108.5,717.5 C 1122.82,729.825 1136.82,742.492 1150.5,755.5C 1147.93,756.484 1147.93,757.651 1150.5,759C 1147.83,760.333 1147.83,761.667 1150.5,763C 1147.83,764.333 1147.83,765.667 1150.5,767C 1147.83,768.333 1147.83,769.667 1150.5,771C 1147.83,772.333 1147.83,773.667 1150.5,775C 1147.83,776.333 1147.83,777.667 1150.5,779C 1147.83,780.333 1147.83,781.667 1150.5,783C 1147.83,784.333 1147.83,785.667 1150.5,787C 1147.83,788.333 1147.83,789.667 1150.5,791C 1147.83,792.333 1147.83,793.667 1150.5,795C 1147.83,796.333 1147.83,797.667 1150.5,799C 1147.83,800.333 1147.83,801.667 1150.5,803C 1147.83,804.333 1147.83,805.667 1150.5,807C 1147.83,808.333 1147.83,809.667 1150.5,811C 1147.83,812.333 1147.83,813.667 1150.5,815C 1147.83,816.333 1147.83,817.667 1150.5,819C 1147.83,820.333 1147.83,821.667 1150.5,823C 1147.83,824.333 1147.83,825.667 1150.5,827C 1147.83,828.333 1147.83,829.667 1150.5,831C 1147.83,832.333 1147.83,833.667 1150.5,835C 1147.83,836.333 1147.83,837.667 1150.5,839C 1147.83,840.333 1147.83,841.667 1150.5,843C 1147.83,844.333 1147.83,845.667 1150.5,847C 1147.83,848.333 1147.83,849.667 1150.5,851C 1147.83,852.333 1147.83,853.667 1150.5,855C 1147.83,856.333 1147.83,857.667 1150.5,859C 1147.83,860.333 1147.83,861.667 1150.5,863C 1149.75,863.671 1149.41,864.504 1149.5,865.5C 1134.53,849.86 1119.19,834.527 1103.5,819.5C 1105.05,817.261 1106.05,815.095 1106.5,813C 1103.83,811.667 1103.83,810.333 1106.5,809C 1103.83,807.667 1103.83,806.333 1106.5,805C 1103.83,803.667 1103.83,802.333 1106.5,801C 1103.83,799.667 1103.83,798.333 1106.5,797C 1103.83,795.667 1103.83,794.333 1106.5,793C 1103.83,791.667 1103.83,790.333 1106.5,789C 1103.83,787.667 1103.83,786.333 1106.5,785C 1103.83,783.667 1103.83,782.333 1106.5,781C 1103.83,779.667 1103.83,778.333 1106.5,777C 1103.83,775.667 1103.83,774.333 1106.5,773C 1103.83,771.667 1103.83,770.333 1106.5,769C 1103.83,767.667 1103.83,766.333 1106.5,765C 1103.83,763.667 1103.83,762.333 1106.5,761C 1103.83,759.667 1103.83,758.333 1106.5,757C 1103.83,755.667 1103.83,754.333 1106.5,753C 1103.83,751.667 1103.83,750.333 1106.5,749C 1103.83,747.667 1103.83,746.333 1106.5,745C 1103.83,743.667 1103.83,742.333 1106.5,741C 1103.83,739.667 1103.83,738.333 1106.5,737C 1103.83,735.667 1103.83,734.333 1106.5,733C 1103.83,731.667 1103.83,730.333 1106.5,729C 1103.83,727.667 1103.83,726.333 1106.5,725C 1103.83,723.667 1103.83,722.333 1106.5,721C 1104.01,718.607 1104.67,717.44 1108.5,717.5 Z"/></g>
<g><path style="opacity:1" fill="#66b0fd" d="M 874.5,730.5 C 873.758,732.426 872.758,734.259 871.5,736C 872.833,768.667 872.833,801.333 871.5,834C 872.094,834.464 872.761,834.631 873.5,834.5C 863.62,844.449 853.286,853.949 842.5,863C 835.625,868.714 828.625,874.214 821.5,879.5C 818.876,877.802 818.876,875.969 821.5,874C 821.656,872.33 820.99,870.663 819.5,869C 819.759,867.739 820.426,866.739 821.5,866C 821.656,864.33 820.99,862.663 819.5,861C 819.759,859.739 820.426,858.739 821.5,858C 821.656,856.33 820.99,854.663 819.5,853C 819.759,851.739 820.426,850.739 821.5,850C 821.656,848.33 820.99,846.663 819.5,845C 819.759,843.739 820.426,842.739 821.5,842C 821.656,840.33 820.99,838.663 819.5,837C 819.759,835.739 820.426,834.739 821.5,834C 821.656,832.33 820.99,830.663 819.5,829C 819.759,827.739 820.426,826.739 821.5,826C 821.656,824.33 820.99,822.663 819.5,821C 819.759,819.739 820.426,818.739 821.5,818C 821.656,816.33 820.99,814.663 819.5,813C 819.759,811.739 820.426,810.739 821.5,810C 821.656,808.33 820.99,806.663 819.5,805C 819.759,803.739 820.426,802.739 821.5,802C 821.656,800.33 820.99,798.663 819.5,797C 820.99,795.337 821.656,793.67 821.5,792C 818.833,790 818.833,788 821.5,786C 820.956,785.283 820.289,784.783 819.5,784.5C 838.454,767.178 856.788,749.178 874.5,730.5 Z"/></g>
<g><path style="opacity:1" fill="#3c9bfe" d="M 1150.5,755.5 C 1185.78,787.782 1219.78,821.448 1252.5,856.5C 1233.81,876.859 1215.14,897.193 1196.5,917.5C 1180.81,900.147 1165.14,882.813 1149.5,865.5C 1149.41,864.504 1149.75,863.671 1150.5,863C 1147.83,861.667 1147.83,860.333 1150.5,859C 1147.83,857.667 1147.83,856.333 1150.5,855C 1147.83,853.667 1147.83,852.333 1150.5,851C 1147.83,849.667 1147.83,848.333 1150.5,847C 1147.83,845.667 1147.83,844.333 1150.5,843C 1147.83,841.667 1147.83,840.333 1150.5,839C 1147.83,837.667 1147.83,836.333 1150.5,835C 1147.83,833.667 1147.83,832.333 1150.5,831C 1147.83,829.667 1147.83,828.333 1150.5,827C 1147.83,825.667 1147.83,824.333 1150.5,823C 1147.83,821.667 1147.83,820.333 1150.5,819C 1147.83,817.667 1147.83,816.333 1150.5,815C 1147.83,813.667 1147.83,812.333 1150.5,811C 1147.83,809.667 1147.83,808.333 1150.5,807C 1147.83,805.667 1147.83,804.333 1150.5,803C 1147.83,801.667 1147.83,800.333 1150.5,799C 1147.83,797.667 1147.83,796.333 1150.5,795C 1147.83,793.667 1147.83,792.333 1150.5,791C 1147.83,789.667 1147.83,788.333 1150.5,787C 1147.83,785.667 1147.83,784.333 1150.5,783C 1147.83,781.667 1147.83,780.333 1150.5,779C 1147.83,777.667 1147.83,776.333 1150.5,775C 1147.83,773.667 1147.83,772.333 1150.5,771C 1147.83,769.667 1147.83,768.333 1150.5,767C 1147.83,765.667 1147.83,764.333 1150.5,763C 1147.83,761.667 1147.83,760.333 1150.5,759C 1147.93,757.651 1147.93,756.484 1150.5,755.5 Z"/></g>
<g><path style="opacity:1" fill="#6db4fd" d="M 819.5,784.5 C 820.289,784.783 820.956,785.283 821.5,786C 818.833,788 818.833,790 821.5,792C 821.656,793.67 820.99,795.337 819.5,797C 820.99,798.663 821.656,800.33 821.5,802C 820.426,802.739 819.759,803.739 819.5,805C 820.99,806.663 821.656,808.33 821.5,810C 820.426,810.739 819.759,811.739 819.5,813C 820.99,814.663 821.656,816.33 821.5,818C 820.426,818.739 819.759,819.739 819.5,821C 820.99,822.663 821.656,824.33 821.5,826C 820.426,826.739 819.759,827.739 819.5,829C 820.99,830.663 821.656,832.33 821.5,834C 820.426,834.739 819.759,835.739 819.5,837C 820.99,838.663 821.656,840.33 821.5,842C 820.426,842.739 819.759,843.739 819.5,845C 820.99,846.663 821.656,848.33 821.5,850C 820.426,850.739 819.759,851.739 819.5,853C 820.99,854.663 821.656,856.33 821.5,858C 820.426,858.739 819.759,859.739 819.5,861C 820.99,862.663 821.656,864.33 821.5,866C 820.426,866.739 819.759,867.739 819.5,869C 820.99,870.663 821.656,872.33 821.5,874C 818.876,875.969 818.876,877.802 821.5,879.5C 806.931,892.454 791.597,904.454 775.5,915.5C 774.711,915.217 774.044,914.717 773.5,914C 774.479,912.221 774.146,910.555 772.5,909C 773.167,908.333 773.833,907.667 774.5,907C 774.5,905.667 774.5,904.333 774.5,903C 771.833,901.667 771.833,900.333 774.5,899C 774.5,897.667 774.5,896.333 774.5,895C 771.833,893.667 771.833,892.333 774.5,891C 774.5,889.667 774.5,888.333 774.5,887C 771.833,885.667 771.833,884.333 774.5,883C 774.5,881.667 774.5,880.333 774.5,879C 771.833,877.667 771.833,876.333 774.5,875C 774.5,873.667 774.5,872.333 774.5,871C 771.833,869.667 771.833,868.333 774.5,867C 774.5,865.667 774.5,864.333 774.5,863C 771.833,861.667 771.833,860.333 774.5,859C 774.5,857.667 774.5,856.333 774.5,855C 771.833,853.667 771.833,852.333 774.5,851C 774.5,849.667 774.5,848.333 774.5,847C 771.833,845.667 771.833,844.333 774.5,843C 774.5,841.667 774.5,840.333 774.5,839C 771.833,837.667 771.833,836.333 774.5,835C 774.5,833.667 774.5,832.333 774.5,831C 771.833,829.667 771.833,828.333 774.5,827C 774.034,825.701 774.034,824.201 774.5,822.5C 789.685,810.071 804.685,797.404 819.5,784.5 Z"/></g>
<g><path style="opacity:1" fill="#83bcf7" d="M 277.5,799.5 C 280.225,800.713 282.559,802.546 284.5,805C 278.133,812.345 270.799,818.512 262.5,823.5C 261.501,839.152 261.167,854.819 261.5,870.5C 258.5,870.5 255.5,870.5 252.5,870.5C 252.5,857.167 252.5,843.833 252.5,830.5C 242.03,835.215 231.363,839.548 220.5,843.5C 218.342,840.852 217.008,837.852 216.5,834.5C 240.668,829.257 261.001,817.591 277.5,799.5 Z"/></g>
<g><path style="opacity:1" fill="#73b7fd" d="M 774.5,822.5 C 774.034,824.201 774.034,825.701 774.5,827C 771.833,828.333 771.833,829.667 774.5,831C 774.5,832.333 774.5,833.667 774.5,835C 771.833,836.333 771.833,837.667 774.5,839C 774.5,840.333 774.5,841.667 774.5,843C 771.833,844.333 771.833,845.667 774.5,847C 774.5,848.333 774.5,849.667 774.5,851C 771.833,852.333 771.833,853.667 774.5,855C 774.5,856.333 774.5,857.667 774.5,859C 771.833,860.333 771.833,861.667 774.5,863C 774.5,864.333 774.5,865.667 774.5,867C 771.833,868.333 771.833,869.667 774.5,871C 774.5,872.333 774.5,873.667 774.5,875C 771.833,876.333 771.833,877.667 774.5,879C 774.5,880.333 774.5,881.667 774.5,883C 771.833,884.333 771.833,885.667 774.5,887C 774.5,888.333 774.5,889.667 774.5,891C 771.833,892.333 771.833,893.667 774.5,895C 774.5,896.333 774.5,897.667 774.5,899C 771.833,900.333 771.833,901.667 774.5,903C 774.5,904.333 774.5,905.667 774.5,907C 773.833,907.667 773.167,908.333 772.5,909C 774.146,910.555 774.479,912.221 773.5,914C 774.044,914.717 774.711,915.217 775.5,915.5C 760.553,926.647 745.22,937.314 729.5,947.5C 729.714,945.856 729.38,944.356 728.5,943C 729.5,942.667 730.5,942.333 731.5,942C 731.5,914 731.5,886 731.5,858C 730.552,857.517 729.552,857.351 728.5,857.5C 744.154,846.33 759.488,834.663 774.5,822.5 Z"/></g>
<g><path style="opacity:1" fill="#78bafd" d="M 728.5,857.5 C 729.552,857.351 730.552,857.517 731.5,858C 731.5,886 731.5,914 731.5,942C 730.5,942.333 729.5,942.667 728.5,943C 729.38,944.356 729.714,945.856 729.5,947.5C 715.004,957.585 700.004,966.918 684.5,975.5C 683.402,946.618 683.402,917.785 684.5,889C 683.906,888.536 683.239,888.369 682.5,888.5C 697.81,878.2 713.144,867.866 728.5,857.5 Z"/></g>
<g><path style="opacity:1" fill="#7fbdfd" d="M 682.5,888.5 C 683.239,888.369 683.906,888.536 684.5,889C 683.402,917.785 683.402,946.618 684.5,975.5C 670.689,983.575 656.689,991.408 642.5,999C 638.446,999.15 635.446,997.317 633.5,993.5C 632.835,968.833 632.835,944.333 633.5,920C 632.756,918.961 631.756,918.461 630.5,918.5C 647.825,908.503 665.159,898.503 682.5,888.5 Z"/></g>
<g><path style="opacity:1" fill="#84bffc" d="M 630.5,918.5 C 631.756,918.461 632.756,918.961 633.5,920C 632.835,944.333 632.835,968.833 633.5,993.5C 615.491,977.165 597.491,960.831 579.5,944.5C 596.397,935.552 613.397,926.885 630.5,918.5 Z"/></g>
<g><path style="opacity:1" fill="#83bdf8" d="M 216.5,922.5 C 243.137,923.307 269.803,923.807 296.5,924C 297.833,925.333 299.167,926.667 300.5,928C 293.159,940.845 283.492,951.678 271.5,960.5C 269.31,958.476 266.977,956.643 264.5,955C 274.167,949.333 281.833,941.667 287.5,932C 263.836,931.5 240.169,931.333 216.5,931.5C 216.5,928.5 216.5,925.5 216.5,922.5 Z"/></g>
<g><path style="opacity:1" fill="#82bbf5" d="M 249.5,941.5 C 252.5,941.5 255.5,941.5 258.5,941.5C 260.386,957.946 257.219,973.279 249,987.5C 243.394,993.464 237.06,998.464 230,1002.5C 227.205,1000.71 224.705,998.54 222.5,996C 237.593,990.335 246.426,979.502 249,963.5C 249.5,956.174 249.666,948.841 249.5,941.5 Z"/></g>
</svg>
